{
    "asset" : {
        "generator" : "Khronos glTF Blender I/O v1.7.33",
        "version" : "2.0"
    },
    "scene" : 0,
    "scenes" : [
        {
            "name" : "Scene",
            "nodes" : [
                0,
                1,
                2,
                3
            ]
        }
    ],
    "nodes" : [
        {
            "mesh" : 0,
            "name" : "Cube",
            "scale" : [
                1,
                1,
                0.25
            ],
            "translation" : [
                8.992646217346191,
                -2.614637851715088,
                0.09928970783948898
            ]
        },
        {
            "mesh" : 1,
            "name" : "Cube.003",
            "scale" : [
                0.5525027513504028,
                0.13271622359752655,
                0.25
            ],
            "translation" : [
                8.845797538757324,
                -2.9232704639434814,
                0.09002575278282166
            ]
        },
        {
            "name" : "Cube.004",
            "scale" : [
                0.4415164291858673,
                0.13271622359752655,
                0.25
            ],
            "translation" : [
                8.845797538757324,
                -2.7071316242218018,
                0.09002575278282166
            ]
        },
        {
            "name" : "Cube.005",
            "scale" : [
                0.5525027513504028,
                0.13271622359752655,
                0.25
            ],
            "translation" : [
                8.845797538757324,
                -2.9232704639434814,
                0.09002575278282166
            ]
        }
    ],
    "materials" : [
        {
            "doubleSided" : true,
            "name" : "Material.007",
            "pbrMetallicRoughness" : {}
        },
        {
            "doubleSided" : true,
            "name" : "Material.006",
            "pbrMetallicRoughness" : {}
        }
    ],
    "meshes" : [
        {
            "name" : "Cube.002",
            "primitives" : [
                {
                    "attributes" : {
                        "POSITION" : 0,
                        "NORMAL" : 1,
                        "TEXCOORD_0" : 2,
                        "TEXCOORD_1" : 3
                    },
                    "indices" : 4,
                    "material" : 0
                }
            ]
        },
        {
            "name" : "Cube.006",
            "primitives" : [
                {
                    "attributes" : {
                        "POSITION" : 5,
                        "NORMAL" : 6,
                        "TEXCOORD_0" : 7
                    },
                    "indices" : 8,
                    "material" : 1
                }
            ]
        }
    ],
    "accessors" : [
        {
            "bufferView" : 0,
            "componentType" : 5126,
            "count" : 76,
            "max" : [
                1.2730474472045898,
                1.0987026691436768,
                1
            ],
            "min" : [
                -1,
                -1,
                -1
            ],
            "type" : "VEC3"
        },
        {
            "bufferView" : 1,
            "componentType" : 5126,
            "count" : 76,
            "type" : "VEC3"
        },
        {
            "bufferView" : 2,
            "componentType" : 5126,
            "count" : 76,
            "type" : "VEC2"
        },
        {
            "bufferView" : 3,
            "componentType" : 5126,
            "count" : 76,
            "type" : "VEC2"
        },
        {
            "bufferView" : 4,
            "componentType" : 5123,
            "count" : 144,
            "type" : "SCALAR"
        },
        {
            "bufferView" : 5,
            "componentType" : 5126,
            "count" : 72,
            "max" : [
                2.9490809440612793,
                11.982765197753906,
                1.0229592323303223
            ],
            "min" : [
                -1,
                -5.231688976287842,
                -1
            ],
            "type" : "VEC3"
        },
        {
            "bufferView" : 6,
            "componentType" : 5126,
            "count" : 72,
            "type" : "VEC3"
        },
        {
            "bufferView" : 7,
            "componentType" : 5126,
            "count" : 72,
            "type" : "VEC2"
        },
        {
            "bufferView" : 8,
            "componentType" : 5123,
            "count" : 108,
            "type" : "SCALAR"
        }
    ],
    "bufferViews" : [
        {
            "buffer" : 0,
            "byteLength" : 912,
            "byteOffset" : 0
        },
        {
            "buffer" : 0,
            "byteLength" : 912,
            "byteOffset" : 912
        },
        {
            "buffer" : 0,
            "byteLength" : 608,
            "byteOffset" : 1824
        },
        {
            "buffer" : 0,
            "byteLength" : 608,
            "byteOffset" : 2432
        },
        {
            "buffer" : 0,
            "byteLength" : 288,
            "byteOffset" : 3040
        },
        {
            "buffer" : 0,
            "byteLength" : 864,
            "byteOffset" : 3328
        },
        {
            "buffer" : 0,
            "byteLength" : 864,
            "byteOffset" : 4192
        },
        {
            "buffer" : 0,
            "byteLength" : 576,
            "byteOffset" : 5056
        },
        {
            "buffer" : 0,
            "byteLength" : 216,
            "byteOffset" : 5632
        }
    ],
    "buffers" : [
        {
            "byteLength" : 5848,
            "uri" : "data:application/octet-stream;base64,"
        }
    ]
}
